<svg xmlns="http://www.w3.org/2000/svg" id="Layer_1" data-name="Layer 1"
                                                viewBox="0 0 100 100">

                                                <path xmlns="http://www.w3.org/2000/svg" id="outerEye" class="cls-1"
                                                    d="M0,9V91a9,9,0,0,0,9,9H91a9,9,0,0,0,9-9V9a9,9,0,0,0-9-9H0Zm76.7,76.7H23.3a9,9,0,0,1-9-9V14.29H76.71a9,9,0,0,1,9,9V76.71A9,9,0,0,1,76.71,85.71Z" />
                                                <path xmlns="http://www.w3.org/2000/svg" id="innerEye" class="cls-1"
                                                    d="M28.58,37.58V62.42a9,9,0,0,0,9,9H62.42a9,9,0,0,0,9-9V37.58a9,9,0,0,0-9-9H28.58Z" />
                                            </svg>