<svg xmlns="http://www.w3.org/2000/svg" id="Layer_1" data-name="Layer 1"
                                                viewBox="0 0 100 100">

                                                <path xmlns="http://www.w3.org/2000/svg" id="outerEye" class="cls-1"
                                                    d="M0,9v91H91a9,9,0,0,0,9-9V0H9A9,9,0,0,0,0,9Zm76.71,76.7H14.29V23.29a9,9,0,0,1,9-9H85.71V76.71A9,9,0,0,1,76.71,85.71Z" />
                                                <path xmlns="http://www.w3.org/2000/svg" id="innerEye" class="cls-1"
                                                    d="M28.57,37.58V71.43H62.42a9,9,0,0,0,9-9V28.57H37.58A9,9,0,0,0,28.57,37.58Z" />

                                            </svg>