<svg xmlns="http://www.w3.org/2000/svg" id="Layer_1" data-name="Layer 1"
                                                viewBox="0 0 100 100">
                                                <path xmlns="http://www.w3.org/2000/svg" id="outerEye" class="cls-1"
                                                    d="M0,9V91a9,9,0,0,0,9,9H91a9,9,0,0,0,9-9V9a9,9,0,0,0-9-9H9A9,9,0,0,0,0,9Zm76.71,76.7H23.29a9,9,0,0,1-9-9V23.29a9,9,0,0,1,9-9H76.71a9,9,0,0,1,9,9V76.71A9,9,0,0,1,76.71,85.71Z" />
                                                <circle xmlns="http://www.w3.org/2000/svg" id="innerEye" cx="50" cy="50"
                                                    r="21.43" />
                                            </svg>